<svg width="149" viewBox="0 0 47919.4765625 39730.60546875"><g><svg data-color="1" xmlns="http://www.w3.org/2000/svg" xmlns:xlink="http://www.w3.org/1999/xlink" xml:space="preserve" version="1.1" style="shape-rendering:geometricPrecision;text-rendering:geometricPrecision;image-rendering:optimizeQuality;" viewBox="1040.250244140625 5134.7041015625 47919.4765625 39730.60546875" x="0px" y="0px" fill-rule="evenodd" clip-rule="evenodd" width="47919.4765625" height="39730.60546875" fill="#e95959"><defs></defs><g><path class="fil0" d="M11967.46 12828.8c-648.44,660.28 -638.73,1734.13 21.55,2382.58 660.27,648.44 1734.13,638.73 2382.57,-21.55 648.45,-660.27 638.74,-1734.13 -21.54,-2382.57 -660.28,-648.45 -1734.13,-638.74 -2382.58,21.54zm32502.95 21651.7c-613.37,624.56 -1629.2,633.74 -2253.76,20.38 -624.56,-613.37 -633.74,-1629.2 -20.38,-2253.76 613.37,-624.56 1629.2,-633.74 2253.76,-20.38 624.56,613.37 633.74,1629.2 20.38,2253.76zm-648.86 -637.23c263.27,-268.09 259.33,-704.39 -8.75,-967.67 -268.09,-263.27 -704.39,-259.33 -967.67,8.75 -263.27,268.09 -259.33,704.39 8.75,967.67 268.09,263.27 704.39,259.33 967.67,-8.75zm-1199.01 -25244.86c-784.58,798.89 -2083.97,810.64 -2882.85,26.06 -798.89,-784.57 -810.64,-2083.96 -26.07,-2882.85 784.54,-798.91 2083.98,-810.62 2882.85,-26.06 798.89,784.57 810.64,2083.96 26.07,2882.85zm-648.86 -637.24c434.48,-442.41 427.97,-1162.27 -14.44,-1596.75 -442.39,-434.47 -1162.29,-428 -1596.76,14.43 -434.48,442.42 -427.97,1162.28 14.44,1596.76 442.41,434.49 1162.27,427.98 1596.76,-14.44zm6531.95 19665.25c-613.37,624.56 -1629.2,633.74 -2253.76,20.38 -624.56,-613.37 -633.74,-1629.2 -20.37,-2253.76 613.36,-624.56 1629.19,-633.74 2253.75,-20.38 624.56,613.37 633.75,1629.2 20.38,2253.76zm-648.86 -637.23c263.28,-268.09 259.33,-704.39 -8.75,-967.67 -268.08,-263.28 -704.38,-259.33 -967.66,8.75 -263.28,268.09 -259.34,704.39 8.75,967.67 268.08,263.27 704.38,259.33 967.66,-8.75zm-42327.2 -11142.42c613.37,-624.56 1629.2,-633.74 2253.76,-20.38 624.56,613.37 633.74,1629.2 20.38,2253.76 -613.37,624.56 -1629.2,633.74 -2253.76,20.38 -624.56,-613.37 -633.74,-1629.2 -20.38,-2253.76zm648.86 637.23c-263.27,268.09 -259.33,704.39 8.75,967.67 268.09,263.27 704.39,259.33 967.67,-8.75 263.27,-268.09 259.33,-704.39 -8.75,-967.67 -268.09,-263.28 -704.39,-259.33 -967.67,8.75zm1177.86 24917.61c784.54,-798.91 2083.98,-810.62 2882.85,-26.07 798.89,784.58 810.64,2083.97 26.07,2882.86 -784.57,798.89 -2083.96,810.63 -2882.85,26.06 -798.87,-784.55 -810.66,-2084 -26.07,-2882.85zm648.86 637.23c-434.5,442.4 -427.95,1162.29 14.44,1596.76 442.41,434.48 1162.27,427.98 1596.76,-14.44 434.48,-442.41 427.97,-1162.27 -14.44,-1596.75 -442.39,-434.47 -1162.29,-428 -1596.76,14.43zm-6510.8 -19337.99c613.37,-624.56 1629.2,-633.74 2253.76,-20.38 624.56,613.37 633.74,1629.2 20.37,2253.76 -613.36,624.56 -1629.19,633.74 -2253.75,20.38 -624.56,-613.37 -633.75,-1629.2 -20.38,-2253.76zm648.86 637.23c-263.28,268.09 -259.33,704.39 8.75,967.67 268.08,263.27 704.38,259.33 967.66,-8.75 263.28,-268.09 259.34,-704.39 -8.75,-967.67 -268.08,-263.27 -704.38,-259.33 -967.66,8.75zm17311.48 -3693.44l-4500.98 -3752.03c-804.07,762.7 -2014.1,928.12 -2991.86,413.46l-2651.37 6702.22c1384.47,431.95 2157.27,1934.77 1680.58,3320.76l2616.24 1340.37c241.6,-437.12 629.78,-781.73 1093.51,-968.31l-774.73 -4044.73c-467.63,22.45 -919.38,-149.35 -1253.65,-477.63 -656.05,-644.3 -665.7,-1710.84 -21.4,-2366.9 644.3,-656.06 1710.84,-665.7 2366.9,-21.4 276.42,271.46 438.64,615.34 486.2,971.71l3556.32 47.47c35.45,-407.11 166.75,-807.65 394.24,-1164.99zm-4146.84 -4165.73l4485.95 3739.52 0.18 -0.18c286.48,-291.71 625,-501.37 986.23,-628.75l-744.49 -2035.57c-663.15,164.76 -1365.13,-24.61 -1854.86,-505.56 -771.21,-757.39 -782.57,-2011.29 -25.16,-2782.5 757.39,-771.23 2011.29,-782.55 2782.5,-25.16 771.23,757.41 782.55,2011.25 25.16,2782.5 -128.43,130.78 -270.67,239.79 -422.09,327.04l772.66 2112.58c790.06,-101.07 1578.84,162.61 2148.72,722.25 1016.85,998.62 1031.76,2651.82 33.17,3668.67 -174.32,177.48 -367.89,324.6 -574.11,441.29l968.13 2647.02c868.74,-208.26 1784.62,42.96 2424.8,671.67 572.5,562.25 850.55,1351.73 759.68,2146.77l3101.51 760.51c122.85,-339.92 319.06,-659.5 588.89,-934.24 1101.33,-1121.43 2948.36,-1003.26 3904.74,232.39l3702.07 -2943.71c-113.8,-418.28 -120.67,-864.77 -20.1,-1286.4l-3377.42 -953.36c-93.18,210.86 -225.21,408.81 -396.28,583.01 -757.45,771.23 -2011.26,782.55 -2782.5,25.16 -740.38,-727.15 -785.41,-1921.42 -100.92,-2700.9l-2004.73 -2563.11c-1013.44,645.91 -2350.79,505.78 -3210.45,-338.48 -1016.81,-998.62 -1031.79,-2651.82 -33.17,-3668.67 175.93,-179.14 371.51,-327.31 579.91,-444.53l-1811.88 -2846.98c-1308.1,339.76 -2671.32,-383.9 -3110.61,-1674.84l-6639.1 2791.52c447.18,846.53 387.52,1891.56 -156.43,2681.04zm-1902.27 12697.8l-2644.62 -1354.88c-324,537.99 -834.06,943.59 -1433.37,1135.09l2820.58 6632.77c543.66,-292.3 1179.33,-379.83 1781.55,-248.9l735.09 -3611.84c-244.96,-103.73 -474.89,-254.38 -676.2,-452.08 -556.56,-546.61 -776.9,-1348.14 -583.03,-2100.16zm1785.04 2700.26l-740.14 3636.53c268.59,122.13 520.81,292.49 743.54,511.22 790.88,776.72 999.69,1977.28 522.01,2973.04l6813.55 2353.51c122.14,-244.79 281.9,-467.66 471.75,-660.97 998.48,-1016.63 2651.97,-1031.58 3668.67,-33.17 405.87,398.61 681.45,929.89 756.13,1524.44l6844.95 -2826.3c-870.38,-1015.26 -817,-2549.38 120.61,-3504.1 868.19,-884.03 2261.95,-1028.36 3290.29,-341.09l2466.55 -6826.02c-673.76,-196.25 -1240.71,-660.7 -1568.26,-1280.01l-3623.47 2881.23c468.37,979.92 273.71,2159.08 -490.24,2936.99 -998.61,1016.82 -2651.85,1031.77 -3668.67,33.17 -587.23,-576.73 -863.67,-1392.02 -752.41,-2204.79l-3089.57 -757.59c-188.95,562.18 -568.68,1044.52 -1068.5,1362.35l1902.8 3835.83c669.95,-251.75 1431.88,-92.37 1944.68,411.24 723.89,710.92 734.53,1887.78 23.61,2611.68 -710.9,723.87 -1887.8,734.51 -2611.68,23.61 -799,-784.68 -713.96,-2100.97 167.3,-2781.18l-1914.4 -3859.23c-614.06,227.43 -1302.55,213.43 -1906.68,-39.84l-1358.57 2520.86c115.49,81.06 225.88,172.6 329.86,274.71 1016.84,998.63 1031.75,2651.83 33.17,3668.67 -998.63,1016.81 -2651.83,1031.8 -3668.67,33.17 -1016.81,-998.62 -1031.8,-2651.82 -33.17,-3668.67 745.83,-759.44 1885.92,-984.9 2862.3,-571.96l1357.75 -2519.35c-1307.38,-911.35 -1495.3,-2801.95 -369.75,-3948.05 217.71,-221.68 465.47,-395.96 730.43,-522.78l-955.4 -2612.19c-800.38,250.15 -1680.37,98.4 -2348.92,-412.53l-3115.08 3989.7c28.75,25.43 56.99,51.72 84.68,78.92 1504.34,1477.37 218.69,4018.99 -1851.05,3708.95zm3879.44 -9523.48l-3582.05 -47.82c-109.02,560.55 -499.51,1028.63 -1030.25,1236.95l770.02 4020.11c437.58,-57.9 884.7,17.72 1278.32,218.83l3168.37 -4057.95c-342.29,-398.73 -543.94,-877.3 -604.41,-1370.12zm6664.21 -9869.49l1798.93 2826.64c908.18,-278.83 1900.47,-39.87 2581.43,628.89 248.89,244.42 438.07,526.74 567.35,828.72l2904.05 -1110.49c-232.65,-667.92 -181.25,-1415.14 143.4,-2044.33l-6717.5 -2594.14c-219.67,634.21 -680.01,1160.77 -1277.66,1464.71zm4381.15 7156.53l1991.32 2545.95c398.75,-257.86 879.34,-361.39 1348.4,-293.99l1279.06 -4845.2c-373.59,-217.01 -690.63,-527.51 -915.38,-896.49l-2976.39 1138.15c164.65,839.7 -92.71,1706.33 -694.63,2319.25 -10.7,10.9 -21.52,21.64 -32.38,32.33zm5121.74 -2369.16l-1259.75 4772.04c207.91,92.97 403.12,223.84 575.16,392.79 446.39,438.36 656.09,1058.83 570.08,1676.45l3410.57 962.72c309.28,-646.89 875.82,-1141.05 1560.68,-1356.99l-2823.87 -6633.2c-620.14,335.58 -1362.54,402.48 -2032.87,186.19zm-7465.09 19291.96c-360.74,367.32 -355.34,964.84 11.99,1325.58 367.32,360.74 964.84,355.34 1325.58,-11.99 360.76,-367.34 355.36,-964.82 -11.99,-1325.58 -367.34,-360.76 -964.82,-355.36 -1325.58,11.99zm4646.86 -13464.74c-407.25,414.68 -401.13,1089.14 13.53,1496.41 414.7,407.23 1089.12,401.15 1496.41,-13.53 407.22,-414.66 401.16,-1089.18 -13.53,-1496.41 -414.68,-407.24 -1089.16,-401.15 -1496.41,13.53zm-19119.04 -1649.51c-294.13,299.51 -289.73,786.67 9.78,1080.81 299.48,294.12 786.68,289.71 1080.8,-9.78 294.12,-299.48 289.71,-786.68 -9.77,-1080.8 -299.51,-294.14 -786.67,-289.73 -1080.81,9.77zm5504.67 -6545.98c-407.26,414.66 -401.13,1089.18 13.53,1496.41 414.68,407.24 1089.14,401.13 1496.41,-13.53 407.22,-414.7 401.14,-1089.16 -13.53,-1496.41 -414.66,-407.23 -1089.18,-401.16 -1496.41,13.53zm12609.02 15320.9c-648.45,660.28 -638.74,1734.13 21.54,2382.58 660.28,648.44 1734.13,638.73 2382.58,-21.55 648.44,-660.27 638.73,-1734.13 -21.55,-2382.57 -660.27,-648.45 -1734.13,-638.74 -2382.57,21.54zm-11969.06 5099.49c-648.45,660.28 -638.74,1734.14 21.54,2382.58 660.28,648.45 1734.13,638.74 2382.58,-21.54 648.44,-660.28 638.73,-1734.13 -21.55,-2382.58 -660.27,-648.44 -1734.13,-638.73 -2382.57,21.54zm-4818.71 -4695.52c1179.75,1158.62 2981.5,-629.78 1778.67,-1811.06 -1189.71,-1168.29 -2968.2,642.76 -1778.67,1811.06zm8669.02 -2343.84c-648.45,660.28 -638.74,1734.14 21.54,2382.58 571.09,560.86 1451.61,629.34 2098.63,210.36 895.52,-579.99 1030.66,-1859.99 262.4,-2614.48 -660.28,-648.44 -1734.13,-638.73 -2382.57,21.54zm3799.99 -11674.2c-648.44,660.28 -638.73,1734.14 21.55,2382.58 660.27,648.44 1734.13,638.74 2382.57,-21.54 648.45,-660.28 638.74,-1734.13 -21.54,-2382.58 -660.28,-648.44 -1734.13,-638.73 -2382.58,21.54zm-6651.98 4245.55c-648.44,660.28 -638.73,1734.13 21.54,2382.58 660.28,648.44 1734.14,638.73 2382.58,-21.54 648.45,-660.28 638.74,-1734.14 -21.54,-2382.58 -660.28,-648.45 -1734.13,-638.74 -2382.58,21.54zm14597.71 15632.92c-648.44,660.28 -638.73,1734.14 21.54,2382.58 660.28,648.45 1734.14,638.74 2382.58,-21.54 648.45,-660.28 638.74,-1734.13 -21.54,-2382.58 -660.28,-648.44 -1734.13,-638.73 -2382.58,21.54zm3350.49 -274.38c688.68,1014.63 563.31,2396.09 -297.51,3272.65 -783.87,798.18 -1998.54,1002.8 -2998.25,509.74l-7739.94 3195.83c-118.24,433.34 -346.08,821.87 -652.17,1133.56 -998.48,1016.63 -2651.97,1031.58 -3668.67,33.17 -570.03,-559.85 -847.57,-1343.37 -761.08,-2135.62l-7118.74 -2458.92c-1007.97,950.37 -2607.55,933.04 -3596.17,-37.86 -970.81,-953.42 -1035.74,-2517.85 -145.85,-3546.47l-3021.18 -7104.51c-3241.78,-179.13 -3210.15,-4985.95 -13.52,-5179.73l2839.48 -7177.76c-889.45,-1013.91 -844.38,-2563.74 101.16,-3526.53 959.19,-976.69 2534.82,-1035.51 3562.42,-131.87l7086.14 -2979.5c47.09,-1386.87 1180.86,-2491.68 2569.26,-2504.23 1415.47,-12.8 2580.52,1112.08 2616.81,2526.84l7155.99 2763.47c1012.66,-904.81 2575.07,-866.6 3544.4,85.36 968.76,951.39 1035.8,2511.77 150.77,3540.7l3027.27 7110.98c644.98,38.37 1227.42,312.8 1661.11,738.68 1016.63,998.48 1031.58,2651.97 33.17,3668.67 -426.14,433.88 -1003.87,718.87 -1648.41,768.68l-2686.49 7434.67zm-3535.69 -20209.4c660.28,648.44 1734.13,638.73 2382.58,-21.55 648.44,-660.27 638.74,-1734.13 -21.54,-2382.57 -660.28,-648.45 -1734.13,-638.74 -2382.58,21.54 -648.44,660.28 -638.73,1734.13 21.54,2382.58zm-22659.6 23073.08c660.27,648.45 1734.13,638.74 2382.57,-21.54 648.45,-660.27 638.74,-1734.13 -21.54,-2382.57 -660.27,-648.45 -1734.13,-638.74 -2382.57,21.54 -648.45,660.27 -638.74,1734.13 21.54,2382.57zm14048.81 -28922.78c-8.42,-930.5 -769.42,-1677.87 -1699.92,-1669.46 -930.5,8.41 -1677.87,769.42 -1669.46,1699.92 20.29,2243.44 3389.2,2161.9 3369.38,-30.46zm-2572.83 33555.19c660.18,648.32 1734.22,638.61 2382.58,-21.54 646.39,-658.19 644.44,-1728.49 -21.55,-2382.58 -660.18,-648.32 -1734.22,-638.61 -2382.57,21.54 -648.46,660.3 -638.72,1734.12 21.54,2382.58zm17218.52 -15832.5c465.24,-4.21 884.74,-196.59 1186.83,-504.17 648.32,-660.19 638.61,-1734.22 -21.54,-2382.58 -307.6,-302.07 -730.51,-486.83 -1195.75,-482.63 -2200.63,19.9 -2203.27,3389.57 30.46,3369.38zm-32337.9 292.38c2200.62,-19.9 2203.26,-3389.58 -30.47,-3369.38 -2200.62,19.9 -2203.26,3389.57 30.47,3369.38z"></path></g></svg></g></svg>