<svg id="Layer_1" data-name="Layer 1" xmlns="http://www.w3.org/2000/svg" xmlns:xlink="http://www.w3.org/1999/xlink" viewBox="0 0 495.2 692.7"><defs><linearGradient id="linear-gradient" x1="41.3" y1="457.45" x2="237" y2="457.45" gradientTransform="translate(0 13.4)" gradientUnits="userSpaceOnUse"><stop offset="0.33" stop-color="#7b84fc"/><stop offset="0.9" stop-color="#89b9fa"/></linearGradient><linearGradient id="linear-gradient-2" x1="236.9" y1="457.4" x2="432.6" y2="457.4" gradientTransform="translate(0 13.4)" gradientUnits="userSpaceOnUse"><stop offset="0.22" stop-color="#89b9fa"/><stop offset="1" stop-color="#7b84fc"/></linearGradient><linearGradient id="linear-gradient-3" x1="130.75" y1="220.35" x2="332.15" y2="421.75" gradientTransform="translate(0 13.4)" gradientUnits="userSpaceOnUse"><stop offset="0" stop-color="#0d3652" stop-opacity="0.1"/><stop offset="0.44" stop-color="#89bbfa"/></linearGradient><linearGradient id="linear-gradient-4" x1="123.71" y1="189.74" x2="265.07" y2="352.33" gradientTransform="translate(0 13.4)" gradientUnits="userSpaceOnUse"><stop offset="0" stop-color="#0d3652" stop-opacity="0.1"/><stop offset="1" stop-color="#7b84fc"/></linearGradient><linearGradient id="linear-gradient-5" x1="41.3" y1="381.95" y2="381.95" xlink:href="#linear-gradient"/><linearGradient id="linear-gradient-6" x1="236.9" y1="381.9" x2="432.6" y2="381.9" xlink:href="#linear-gradient-2"/><linearGradient id="linear-gradient-7" x1="100.63" y1="155.26" x2="311.07" y2="276.55" gradientTransform="translate(0 13.4)" gradientUnits="userSpaceOnUse"><stop offset="0.15" stop-color="#89bbfa"/><stop offset="0.84" stop-color="#7b84fc"/></linearGradient><linearGradient id="linear-gradient-8" x1="41.2" y1="306.4" x2="236.9" y2="306.4" xlink:href="#linear-gradient"/><linearGradient id="linear-gradient-9" x1="236.9" y1="306.4" x2="432.6" y2="306.4" xlink:href="#linear-gradient-2"/><linearGradient id="linear-gradient-10" x1="236.9" y1="344.15" x2="432.6" y2="344.15" xlink:href="#linear-gradient-2"/><linearGradient id="linear-gradient-12" x1="236.9" y1="306.4" x2="41.2" y2="306.4" xlink:href="#linear-gradient-2"/><linearGradient id="linear-gradient-13" x1="236.9" y1="419.65" x2="41.3" y2="419.65" xlink:href="#linear-gradient-2"/><linearGradient id="linear-gradient-14" x1="236.8" y1="344.2" x2="432.5" y2="344.2" xlink:href="#linear-gradient-2"/><linearGradient id="linear-gradient-15" x1="236.8" y1="457.5" x2="432.4" y2="457.5" xlink:href="#linear-gradient-2"/><linearGradient id="linear-gradient-16" x1="236.8" y1="306.4" x2="41.1" y2="306.4" xlink:href="#linear-gradient-2"/><linearGradient id="linear-gradient-17" x1="236.8" y1="419.75" x2="41.1" y2="419.75" xlink:href="#linear-gradient-2"/><linearGradient id="linear-gradient-18" x1="199.33" y1="67.9" x2="240.36" y2="67.9" gradientTransform="translate(0 13.4)" gradientUnits="userSpaceOnUse"><stop offset="0" stop-color="#fff"/><stop offset="1" stop-color="#e7e8e3"/></linearGradient></defs><title>main-illustrationn</title><g id="TL"><polygon points="432.6 337.8 432.6 247.2 236.9 116.8 236.9 207.3 432.6 337.8" style="fill:#89bbfa;opacity:0.05000000074505806;isolation:isolate"/><polygon points="41.3 413.1 237 543.5 432.6 413.1 432.6 398.1 236.9 267.7 41.3 398.1 41.3 413.1" style="fill:#89bbfa;opacity:0.30000001192092896;isolation:isolate"/><polygon points="41.3 398.1 41.3 413.1 237 543.6 236.9 528.6 41.3 398.1" style="opacity:0.4000000059604645;isolation:isolate;fill:url(#linear-gradient)"/><polygon points="236.9 528.6 236.9 543.5 432.6 413.1 432.6 398.1 236.9 528.6" style="opacity:0.6000000238418579;isolation:isolate;fill:url(#linear-gradient-2)"/><polygon points="236.9 267.7 52.3 391.2 52.5 330.2 237 207 236.9 267.7" style="fill:#89bbfa;opacity:0.15000000596046448;isolation:isolate"/><polyline points="226.1 199.8 41 323.5 41.6 338.4 236.6 468.9 421.8 345.5 421.8 331" style="opacity:0.30000001192092896;isolation:isolate;fill:url(#linear-gradient-3)"/><polygon points="41.3 323.2 237 453.7 421.4 330.7 225.7 199.8 41.3 323.2" style="opacity:0.5;isolation:isolate;fill:url(#linear-gradient-4)"/><polygon points="41.3 322.6 41.3 337.6 237 468.1 236.9 453.1 41.3 322.6" style="opacity:0.699999988079071;isolation:isolate;fill:url(#linear-gradient-5)"/><polygon points="236.9 453.1 236.9 468 432.6 337.6 432.6 322.6 236.9 453.1" style="fill:url(#linear-gradient-6)"/><polygon points="41.6 337.1 41.6 322.1 225.9 199.8 237 206.9 41.6 337.1" style="fill:#89bbfa;opacity:0.15000000596046448;isolation:isolate"/><polygon points="236.9 131.4 237 206.9 225.7 199.4 225.7 138.8 236.9 131.4" style="fill:#7b84fc;opacity:0.10000000149011612;isolation:isolate"/><polygon points="432.6 262 432.6 322.6 421.4 330.1 421.4 269.5 432.6 262" style="fill:#7b84fc;opacity:0.699999988079071;isolation:isolate"/><polygon points="41.1 247.1 236.8 377.6 432.4 247.1 236.8 116.7 41.1 247.1" style="opacity:0.10000000149011612;isolation:isolate;fill:url(#linear-gradient-7)"/><polygon points="41.2 247.1 41.2 262 236.9 392.5 236.9 377.5 41.2 247.1" style="opacity:0.4000000059604645;isolation:isolate;fill:url(#linear-gradient-8)"/><polygon points="236.9 377.5 236.9 392.5 432.6 262 432.6 247.1 236.9 377.5" style="opacity:0.699999988079071;isolation:isolate;fill:url(#linear-gradient-9)"/><polygon points="41.2 262 41.2 247.1 236.9 116.6 236.9 131.6 41.2 262" style="fill:#89bbfa;opacity:0.029999999329447746;isolation:isolate"/><polygon points="236.9 377.5 236.9 392.5 421.4 269.5 421.4 330.1 236.9 453.1 236.9 468 432.6 337.6 432.6 247.1 236.9 377.5" style="opacity:0.8999999761581421;isolation:isolate;fill:url(#linear-gradient-10)"/><polygon points="236.9 528.6 432.6 398.1 432.6 413.1 236.9 543.5 236.9 528.6" style="opacity:0.8999999761581421;isolation:isolate;fill:url(#linear-gradient-2)"/><polygon points="236.9 392.5 236.9 377.5 41.2 247.1 41.2 262 236.9 392.5" style="opacity:0.8999999761581421;isolation:isolate;fill:url(#linear-gradient-12)"/><polygon points="236.9 453.1 236.9 468 52.5 345 52.5 405.6 236.9 528.6 236.9 543.5 41.3 413.1 41.3 322.6 236.9 453.1" style="opacity:0.8999999761581421;isolation:isolate;fill:url(#linear-gradient-13)"/><polygon points="236.8 377.5 236.8 392.5 421.2 269.5 421.2 330.2 236.8 453.1 236.8 468.1 432.5 337.7 432.4 247.1 236.8 377.5" style="opacity:0.8999999761581421;isolation:isolate;fill:url(#linear-gradient-14)"/><polygon points="236.8 528.6 432.4 398.2 432.4 413.2 236.8 543.6 236.8 528.6" style="opacity:0.8999999761581421;isolation:isolate;fill:url(#linear-gradient-15)"/><polygon points="236.8 392.5 236.8 377.5 41.1 247.1 41.1 262.1 236.8 392.5" style="opacity:0.8999999761581421;isolation:isolate;fill:url(#linear-gradient-16)"/><polygon points="236.8 453.1 236.8 468.1 52.3 345.1 52.3 405.7 236.8 528.6 236.8 543.6 41.1 413.1 41.1 322.7 236.8 453.1" style="opacity:0.8999999761581421;isolation:isolate;fill:url(#linear-gradient-17)"/><polygon points="421.3 254.6 432.4 247.1 236.9 117.1 225.7 124.2 421.3 254.6" style="fill:#89bbfa;opacity:0.05000000074505806;isolation:isolate"/></g><g id="banks"><g id="_1" data-name=" 1"><path d="M353.4,228.9c0,3.2-4.1,5.8-9.4,5.8s-9.5-2.6-9.5-5.8,4.1-5.7,9.5-5.7S353.4,225.7,353.4,228.9Z" style="fill:#5b98bf;opacity:0.4000000059604645;isolation:isolate"/><path d="M369.6,228.5c0,8.6-11.2,15.9-25.6,15.9s-25.7-7.2-25.7-15.8,11.3-15.4,25.7-15.4S369.6,219.9,369.6,228.5Z" style="fill:none;stroke:#b7daee;stroke-miterlimit:10;opacity:0.5799999833106995;isolation:isolate"/><circle cx="344" cy="110.2" r="31.5" style="fill:#33769f;stroke:#4aa2d5;stroke-linecap:round;stroke-linejoin:round;stroke-width:1.3681000471115112px"/><path id="path286" d="M356.9,123l4.4-7.4a1.08,1.08,0,0,0,0-1.1l-4.6-7.9c-.1-.1-.1-.1-.2-.1s-.2,0-.2.1L352,114a2.1,2.1,0,0,1-1.8,1h-.1c.7.1,2.6-.3,2.9.3" style="fill:#e2eef2"/><path id="path284" d="M341.5,115a.22.22,0,0,0-.2.2.19.19,0,0,0,0,.3l4.6,8a1.19,1.19,0,0,0,.9.5h8.9a1.33,1.33,0,0,0,1-.6l.2-.3-4-7.8c0-.1-.1-.1-.2-.1H341.5Z" style="fill:#e2eef2"/><line x1="344" y1="141.9" x2="344" y2="229" style="fill:none;stroke:#4aa2d5;stroke-linecap:round;stroke-linejoin:round;stroke-width:1.3681000471115112px"/><path id="path282" d="M326.9,115.9l4.3,7.4a1.8,1.8,0,0,0,.9.6h9.1a.27.27,0,0,0,.3-.3v-.1l-4.3-7.4a1.82,1.82,0,0,1,0-2V114c-.5.6-1.1,1.3-1.8,1.3" style="fill:#e2eef2"/><path id="path278" d="M348,93.5h-8.5a.94.94,0,0,0-.9.5l-4.6,7.9a.19.19,0,0,0,0,.3c.1.1.2.1.2.2h8.5a2.23,2.23,0,0,1,1.8,1l.1.1a2.57,2.57,0,0,1-.3-2.4" style="fill:#e2eef2"/><path d="M380.3,228.4c0,12.2-15.8,22.5-36.3,22.5s-36.4-10.2-36.4-22.4,16-21.8,36.4-21.8S380.3,216.2,380.3,228.4Z" style="fill:none;stroke:#b7daee;stroke-miterlimit:10;opacity:0.28999999165534973;isolation:isolate"/><path id="path280" d="M341.5,106.6v-.3l-.2-.2h-9.2a1.05,1.05,0,0,0-.9.5l-4.4,7.8a1.27,1.27,0,0,0,0,1.2l.2.3,9.7-.8.7-1.2Z" style="fill:#e2eef2"/><path id="path268" d="M348.8,110.8c.1.1.1.1.2.1s.2,0,.2-.1l4.6-8a1.08,1.08,0,0,0,0-1.1L349.4,94a1.33,1.33,0,0,0-1-.6H348l-4.2,8.7.8,1.3Z" style="fill:#e2eef2"/><path d="M327.4,287.4c0,15.7-20.3,28.9-46.5,28.9s-46.7-13-46.7-28.7,20.4-28,46.7-28S327.4,271.8,327.4,287.4Z" style="fill:none;stroke:#b7daee;stroke-miterlimit:10;opacity:0.28999999165534973;isolation:isolate"/></g><g id="_2" data-name=" 2"><path d="M289.4,288c0,2.9-3.8,5.4-8.8,5.4s-8.8-2.4-8.8-5.4,3.8-5.3,8.8-5.3S289.4,285,289.4,288Z" style="fill:#5b98bf;opacity:0.4399999976158142;isolation:isolate"/><path d="M306.5,287.7c0,8.6-11.2,15.9-25.6,15.9s-25.7-7.2-25.7-15.8,11.3-15.4,25.7-15.4S306.5,279.1,306.5,287.7Z" style="fill:none;stroke:#b7daee;stroke-miterlimit:10;opacity:0.5899999737739563;isolation:isolate"/><line x1="280.7" y1="203.1" x2="280.7" y2="288.1" style="fill:none;stroke:#4aa2d5;stroke-linecap:round;stroke-linejoin:round;stroke-width:1.3681000471115112px"/><circle cx="280.7" cy="171.1" r="31.5" style="fill:#33769f;stroke:#4aa2d5;stroke-linecap:round;stroke-linejoin:round;stroke-width:1.3681000471115112px"/><path id="path3383" d="M295.4,171.3h-5.8a3.08,3.08,0,0,1-2.8-1.8,6.92,6.92,0,0,0-4.1-4.1,3,3,0,0,1-1.9-2.8v-5.7a2.9,2.9,0,0,1,2.9-2.9h0a2.94,2.94,0,0,1,2.9,2.7v.1l-.1,4.7,6.7-6.8a2.84,2.84,0,0,1,4,0h0a3,3,0,0,1,0,4.1h0l-6.6,6.6h4.5a2.9,2.9,0,0,1,2.9,2.9,2.54,2.54,0,0,1-2.6,3Zm-.1,7-4.7-.1,6.7,6.7a2.9,2.9,0,0,1-4.1,4.1h0l-6.6-6.6v4.5a2.82,2.82,0,0,1-2.8,2.9h-.1a2.9,2.9,0,0,1-2.9-2.9v-5.8a3,3,0,0,1,1.9-2.8,6.92,6.92,0,0,0,4.1-4.1,3,3,0,0,1,2.8-1.9h5.8a2.9,2.9,0,0,1,2.9,2.9,2.82,2.82,0,0,1-2.8,2.9c-.1.2-.1.2-.2.2Zm-18.6,11.6a2.66,2.66,0,0,1-2.8-2.4v-.4l.1-4.7-6.7,6.7a2.87,2.87,0,0,1-4.1-.2,2.91,2.91,0,0,1,0-3.9l6.6-6.6h-4.5a2.9,2.9,0,0,1-.1-5.8h5.9a3.08,3.08,0,0,1,2.8,1.8,6.76,6.76,0,0,0,4,4.1,2.83,2.83,0,0,1,1.9,2.8v5.8a3.14,3.14,0,0,1-3.1,2.8Zm1-24.5a7.2,7.2,0,0,0-4.1,4.1,3,3,0,0,1-2.8,1.9H265a2.9,2.9,0,0,1-2.9-2.9,2.78,2.78,0,0,1,2.6-2.9h.3l4.7.1L263,159a3,3,0,0,1,0-4.1,2.87,2.87,0,0,1,4.1,0l6.6,6.6v-4.6a2.9,2.9,0,1,1,5.8,0v5.8a2.7,2.7,0,0,1-1.8,2.7" style="fill:#e1edf2"/><path d="M152.4,241.4c0,3.3-4.3,6.1-9.8,6.1s-9.8-2.7-9.8-6,4.3-5.9,9.8-5.9S152.4,238.1,152.4,241.4Z" style="fill:#4aa2d6;opacity:0.4000000059604645;isolation:isolate"/><path d="M168.3,241.2c0,8.6-11.2,15.9-25.6,15.9S117,249.9,117,241.3s11.3-15.4,25.7-15.4S168.3,232.5,168.3,241.2Z" style="fill:none;stroke:#b7daee;stroke-miterlimit:10;stroke-width:1.2548999786376953px;opacity:0.47999998927116394;isolation:isolate"/><path d="M183,241c0,13.6-17.6,25-40.3,25s-40.5-11.3-40.5-24.9,17.7-24.3,40.5-24.3S183,227.4,183,241Z" style="fill:none;stroke:#b7daee;stroke-miterlimit:10;opacity:0.1899999976158142;isolation:isolate"/></g><g id="_3" data-name=" 3"><circle cx="142.6" cy="122.7" r="31.5" style="fill:#33769f;stroke:#4aa2d5;stroke-linecap:round;stroke-linejoin:round;stroke-width:1.3681000471115112px"/><line x1="142.6" y1="154.4" x2="142.6" y2="241.5" style="fill:none;stroke:#4aa2d5;stroke-linecap:round;stroke-linejoin:round;stroke-width:1.3681000471115112px"/><path d="M122.1,122.3l10.3,10.2V112C132.5,112,122.1,122.3,122.1,122.3Z" style="fill:#e2eef2"/><path d="M132.4,132.6H153l-10.3-10.3Z" style="fill:#e2eef2"/><path d="M142.8,122.3,153.1,112l-20.6-.1Z" style="fill:#e2eef2"/><path d="M153,112v20.5l10.3-10.2Z" style="fill:#e2eef2"/></g><g id="_4" data-name=" 4"><path d="M255.2,200.6c0,11.9-15.4,21.9-35.3,21.9s-35.5-9.9-35.5-21.8,15.5-21.2,35.5-21.2S255.2,188.7,255.2,200.6Z" style="fill:none;stroke:#b7daee;stroke-miterlimit:10;opacity:0.11999999731779099;isolation:isolate"/><circle cx="219.3" cy="81.6" r="31.5" style="fill:#33769f;stroke:#4aa2d5;stroke-linecap:round;stroke-linejoin:round;stroke-width:1.3681000471115112px"/><path d="M227.9,200.9c0,2.8-3.7,5.2-8.4,5.2s-8.4-2.4-8.4-5.2,3.7-5.1,8.4-5.1S227.9,198.1,227.9,200.9Z" style="fill:#3684b5;opacity:0.5;isolation:isolate"/><path d="M245.2,200.1c0,8.6-11.2,15.9-25.6,15.9s-25.7-7.2-25.7-15.8,11.3-15.4,25.7-15.4S245.2,191.5,245.2,200.1Z" style="fill:none;stroke:#a1bdcf;stroke-miterlimit:10;opacity:0.5299999713897705;isolation:isolate"/><line x1="219.5" y1="113.1" x2="219.4" y2="201" style="fill:none;stroke:#4aa2d5;stroke-linecap:round;stroke-linejoin:round;stroke-width:1.3681000471115112px"/><path d="M238.8,82.1c.8.6,1.6,1,1.6,1.9,0,.3-.3.5-1,.5a2.1,2.1,0,0,1-1.5-.5c-.2-.3.1-.8-.1-1s-.5-.1-.8-.3-.3-.3-.5-.7a12,12,0,0,0-1.7-2.1,3.25,3.25,0,0,0-1.8-1h-.6c-.6,0-1.1.6-2,1a6.94,6.94,0,0,1-1.3.5l-.1.1h.8c.8,0,1.7-.1,2.4-.1s1.1.7,1.4,1.4A49,49,0,0,0,236,87a5,5,0,0,1,.9,2.3c0,.3,0,.8-.4.8s-2-.6-2-1.3.4-.7.4-1.2c0-.3-.5-.3-.6-.5a8.41,8.41,0,0,0-1.7-4c-.4-.5-.5-.7-1-.7-.2,0-.5.1-.7.1-1.2.4-2.8,1.8-4.7,2.4-.8.2-.9-.2-1.7-.1h.1a20.52,20.52,0,0,0-2,.8,13.39,13.39,0,0,1-4.9.3,18.41,18.41,0,0,0-3.3-.3,6.91,6.91,0,0,1-3.1,4,1.39,1.39,0,0,0-.9,1.7v.1c.3,1.2,1.3,2,1.9,3.1a7.55,7.55,0,0,0,2.1,2.6,2.22,2.22,0,0,1,1.4,1.7c0,.3-.1.4-.3.4h-1.7c-.3,0-.4-.1-.4-.3-.2-.4-.1-.8-.4-1.3s-.4-.2-.7-.4c-.5-.5-.1-.8-.5-1.4a28.53,28.53,0,0,0-2.5-3.3c-.5-.6-1.1-1-1.1-1.8,0-1,1-1.2,1-2.2a5.24,5.24,0,0,1-2.6,1,1.82,1.82,0,0,0-.8.6,2,2,0,0,0-.6,1.5,19.72,19.72,0,0,0-.2,4.2,2.45,2.45,0,0,0,1.1,1.7,2.07,2.07,0,0,1,1,1.4c0,.1-.1.4-.3.4H205a.52.52,0,0,1-.4-.2c-.2-.3-.1-.6-.1-1-.1-.8-1.1-.8-1.1-1.7,0-.3.1-.6.1-1.1a24.39,24.39,0,0,0,.1-5.4c-.1-1.3,1.3-1.4,2-2.6.4-.7.3-.4.6-.9a1.67,1.67,0,0,0,.1-1.2,7.1,7.1,0,0,1-.1-2.9,4.87,4.87,0,0,1,1-2.2.1.1,0,0,0-.1-.1h0c-.8.1-.8-.1-1.2-.1a1.15,1.15,0,0,0-.9.6.55.55,0,0,1-.3-.5,1.33,1.33,0,0,1,.3-.8c.1-.1,0-.1-.1-.1-.6,0-1.1.7-1.3,1.2-.3-.1-.3-.5-.5-.5s-.3.2-.3.5c0,1.7,2.7,2,2.7,4.2,0,2.5-3.1,2-3.1,2.9a.43.43,0,0,0,.4.4c-.1.2-.4.4-.6.3A1.2,1.2,0,0,1,201,87v-.1c0-1.4,1.9-1.4,1.9-2.4,0-.5-.3-.6-.6-.9-1.7-1.3-2.8-2.5-2.8-4.5a3.68,3.68,0,0,1,3.4-3.9h.2c2.9,0,3,3.3,5.6,3.6a5.58,5.58,0,0,1,3.3-1c1.7,0,2.4.4,4.2.4a6.1,6.1,0,0,0,3.4-1.2,3.81,3.81,0,0,0,1.3-.9c1.2-1.5,2.3-3.3,2.3-4.7h0c0-.4-.1-.7-.3-.7-.6,0-1.2.6-1.8,1.2-.4.4.2.6-.7,1-.3.1-.7-.1-1-.1-.7,0-1-.8-1-1.5,0-.3.3-.5.4-.8a12.2,12.2,0,0,1,.7-1.7c.2-.5.6-.8.6-1.1,0-.1-.1-.2-.1-.3,0-.7,1-1.2,1-1.9,0-.4-.4-.6-.6-.9v-.4a.1.1,0,0,1,.1-.1c.3,0,.5.4.8.6,0-.5-.1-.5-.1-.9,0-.1,0-.5.1-.5s.2.3.4.5.5.1.8.3.6.6.7.6c.3.1.5-.4.3-.6.4,0,.8.3,1.4.3a2.77,2.77,0,0,1,1.3.3c.6.5.6.8,1.3.8.3,0,.5-.3.6-.3.4.3.4,1,0,1.7.1.5,1,.6,1.3.9s.3.4.6.6a.64.64,0,0,0,.6,0,1.17,1.17,0,0,1-1,1.4h-.2c0,1,1,1.5,1.5,1.7a1.55,1.55,0,0,1-1.1.8c.1.6.8,1.4.4,2.2a.4.4,0,0,0-.6.2.35.35,0,0,1-.1.2c0,.5.6.7,0,1-.3.1-.3.5.1,1a7.41,7.41,0,0,1,2.1-.1c.5,0,1-.1,1.5-.1a2.23,2.23,0,0,1,1.8,1,27.82,27.82,0,0,0,4.1,4.3" style="fill:url(#linear-gradient-18)"/><path d="M200.3,78.8c.3,0,.9-1.7,2.1-1.7.3,0,.4.1.4.3s-.4.4-.4.8c0,.1,0,.1.1.1a2.51,2.51,0,0,1,1.7-.6,2,2,0,0,1,.8.1c.1,0,.4.1.3-.2a2.37,2.37,0,0,0-2.4-1.5,2.88,2.88,0,0,0-2.7,2.4c0,.1,0,.3.1.3" style="fill:#fff"/><path d="M222.1,67.3c-.3-.1-.4-.3-.3-.8s.1-.6-.1-.7-.4.1-.6.3a2.36,2.36,0,0,0-.6.9c-.1.3.4.3,0,.9a11.4,11.4,0,0,0-1,1.9,2.07,2.07,0,0,1-.6,1c-.1.2.2.2.6.1s.5.3.3.8,0,.3.3.1-.1-.5-.1-1.3a5,5,0,0,1,.8-2c.4-.6.8-1.1,1.4-.9.3.2.2-.2-.1-.3" style="fill:#fff"/><path d="M225.2,77c2.9,1.3,2.8,3.8,3,3.2a2.71,2.71,0,0,0-.5-2.6c-.8-1-1.1-.7-.8-1.5,1.3-3.1,2.1-7.8-1.7-9.4a1.85,1.85,0,0,0-.7-.2c0,.1.4.2.9.6,2.6,1.7,1.7,6.3-.5,8.5-1,.8-.6.9.3,1.4" style="fill:#fff"/><path d="M217.1,81.4c1.6-.1,1.9-.6,2.1-1.7a3.77,3.77,0,0,1,.9-1.5c.2-.3.5-.5.7-.8.1-.1.1-.3,0-.2s-.8.5-1,.7a7.71,7.71,0,0,1-3.6,1.2c-1.5,0-2.8-.4-4.1-.4-4,0-5.6,3.1-5.4,5,0,.3.1.3.1.3.3,0,.6-1,1.5-2.1a7.55,7.55,0,0,1,5.4-2.2c1.7,0,2.4.6,2.4.8,0,.4-.7.4-.6.8a9.21,9.21,0,0,0,1.6.1" style="fill:#fff"/></g></g><script xmlns=""/></svg>